<svg width="48" height="45" viewBox="0 0 48 45" fill="none" xmlns="http://www.w3.org/2000/svg">
<g id="icon_2_green">
<g id="Group">
<g id="Group_2">
<g id="Group_3">
<g id="Group_4">
<path id="Vector" d="M3.2 11.1176C3.642 11.1176 4 11.473 4 11.9118C4 12.3505 3.642 12.7059 3.2 12.7059H2.4C1.958 12.7059 1.6 13.0612 1.6 13.5V34.1471C1.6 34.5858 1.958 34.9412 2.4 34.9412H37.6C38.042 34.9412 38.4 34.5858 38.4 34.1471V21.4412C38.4 21.0024 38.758 20.6471 39.2 20.6471C39.642 20.6471 40 21.0024 40 21.4412V34.1471C40 35.4626 38.9253 36.5294 37.6 36.5294H27.896L30.032 39.7059H32C33.3253 39.7059 34.4 40.7726 34.4 42.0882V43.6765C34.4 44.1152 34.042 44.4706 33.6 44.4706H6.4C5.958 44.4706 5.6 44.1152 5.6 43.6765C5.6 43.2377 5.958 42.8824 6.4 42.8824H32.8V42.0882C32.8 41.6495 32.442 41.2941 32 41.2941H8C7.558 41.2941 7.2 40.9387 7.2 40.5C7.2 40.0612 7.558 39.7059 8 39.7059H9.968L12.104 36.5294H2.4C1.07467 36.5294 0 35.4626 0 34.1471V13.5C0 12.1844 1.07467 11.1176 2.4 11.1176H3.2ZM25.968 36.5294H14.032L11.896 39.7059H28.104L25.968 36.5294ZM31.2 31.7647C31.642 31.7647 32 32.1201 32 32.5588C32 32.9976 31.642 33.3529 31.2 33.3529H24.8C24.358 33.3529 24 32.9976 24 32.5588C24 32.1201 24.358 31.7647 24.8 31.7647H31.2ZM9.6 22.2353C10.042 22.2353 10.4 22.5907 10.4 23.0294V29.3824C10.4 29.8211 10.042 30.1765 9.6 30.1765C9.158 30.1765 8.8 29.8211 8.8 29.3824V23.0294C8.8 22.5907 9.158 22.2353 9.6 22.2353ZM17.6 22.2353C18.042 22.2353 18.4 22.5907 18.4 23.0294V29.3824C18.4 29.8211 18.042 30.1765 17.6 30.1765C17.158 30.1765 16.8 29.8211 16.8 29.3824V23.0294C16.8 22.5907 17.158 22.2353 17.6 22.2353ZM18.4 3.17647C20.6093 3.17647 22.4 4.95397 22.4 7.14706V8.73529C22.4 10.6226 21.0627 12.2493 19.2 12.6265V13.5C19.198 14.9956 18.5893 16.4263 17.512 17.4706H17.6C19.8093 17.4706 21.6 19.2481 21.6 21.4412V29.3824C21.6 29.8211 21.242 30.1765 20.8 30.1765C20.358 30.1765 20 29.8211 20 29.3824V21.4412C20 20.1256 18.9253 19.0588 17.6 19.0588H16.456L14.4 22.4576V29.3824C14.4 29.8211 14.042 30.1765 13.6 30.1765C13.158 30.1765 12.8 29.8211 12.8 29.3824V22.4576L10.744 19.0588H9.6C8.27467 19.0588 7.2 20.1256 7.2 21.4412V29.3824C7.2 29.8211 6.842 30.1765 6.4 30.1765C5.958 30.1765 5.6 29.8211 5.6 29.3824V21.4412C5.6 19.2481 7.39067 17.4706 9.6 17.4706H9.688C8.61067 16.4263 8.00133 14.9956 8 13.5V12.6265C6.13733 12.2493 4.8 10.6226 4.8 8.73529V3.97059C4.8 3.53184 5.158 3.17647 5.6 3.17647H18.4ZM36 28.5882C36.442 28.5882 36.8 28.9436 36.8 29.3824C36.8 29.8211 36.442 30.1765 36 30.1765H24.8C24.358 30.1765 24 29.8211 24 29.3824C24 28.9436 24.358 28.5882 24.8 28.5882H36ZM36 25.4118C36.442 25.4118 36.8 25.7671 36.8 26.2059C36.8 26.6446 36.442 27 36 27H29.6C29.158 27 28.8 26.6446 28.8 26.2059C28.8 25.7671 29.158 25.4118 29.6 25.4118H36ZM44 0C46.2093 0 48 1.7775 48 3.97059V9.52941C48 9.96816 47.642 10.3235 47.2 10.3235C46.758 10.3235 46.4 9.96816 46.4 9.52941V3.97059C46.4 2.655 45.3253 1.58824 44 1.58824H28C26.6747 1.58824 25.6 2.655 25.6 3.97059V15.0882C25.6 16.4038 26.6747 17.4706 28 17.4706H28.8C29.0713 17.4587 29.3307 17.5844 29.488 17.8041C29.6387 18.0106 29.6807 18.2766 29.6 18.5188L28.624 21.2903L35.088 17.5738C35.2113 17.5076 35.348 17.4726 35.488 17.4706H44C45.3253 17.4706 46.4 16.4038 46.4 15.0882V12.7059C46.4 12.2671 46.758 11.9118 47.2 11.9118C47.642 11.9118 48 12.2671 48 12.7059V15.0882C48 17.2813 46.2093 19.0588 44 19.0588H35.704L27.6 23.7282C27.3113 23.8904 26.9513 23.8586 26.696 23.6488C26.438 23.441 26.336 23.0963 26.44 22.7832L27.696 19.0588C25.6067 18.9007 23.994 17.1688 24 15.0882V3.97059C24 1.7775 25.7907 0 28 0H44ZM14.584 19.0588H12.616L13.6 20.6947L14.584 19.0588ZM9.6 8.51294V13.5C9.6 15.6931 11.3907 17.4706 13.6 17.4706C15.8093 17.4706 17.6 15.6931 17.6 13.5V9.52941H14.088C12.534 9.53074 10.9993 9.18331 9.6 8.51294ZM32.8 3.17647C34.0593 3.17647 35.2447 3.76544 36 4.76471C36.7553 3.76544 37.9407 3.17647 39.2 3.17647H44C44.442 3.17647 44.8 3.53184 44.8 3.97059V13.5C44.8 13.9387 44.442 14.2941 44 14.2941H37.6C37.158 14.2941 36.8 14.6495 36.8 15.0882C36.8 15.527 36.442 15.8824 36 15.8824C35.558 15.8824 35.2 15.527 35.2 15.0882V7.14706C35.2 5.83147 34.1253 4.76471 32.8 4.76471H28.8V12.7059H32.8C33.242 12.7059 33.6 13.0612 33.6 13.5C33.6 13.9387 33.242 14.2941 32.8 14.2941H28C27.558 14.2941 27.2 13.9387 27.2 13.5V3.97059C27.2 3.53184 27.558 3.17647 28 3.17647H32.8ZM14.168 14.0638C14.4853 13.7938 14.9587 13.8124 15.2547 14.1055C15.5493 14.3987 15.568 14.8685 15.296 15.1835C14.3587 16.1126 12.8413 16.1126 11.904 15.1835C11.632 14.8685 11.6507 14.3987 11.946 14.1049C12.2413 13.8124 12.7147 13.7938 13.032 14.0638C13.182 14.214 13.3867 14.2987 13.6 14.2987C13.8133 14.2987 14.018 14.214 14.168 14.0638ZM43.2 4.76471H39.2C37.8747 4.76471 36.8 5.83147 36.8 7.14706V12.8409C37.0573 12.7509 37.3273 12.7052 37.6 12.7059H43.2V4.76471ZM12 11.1176C12.442 11.1176 12.8 11.473 12.8 11.9118C12.8 12.3505 12.442 12.7059 12 12.7059C11.558 12.7059 11.2 12.3505 11.2 11.9118C11.2 11.473 11.558 11.1176 12 11.1176ZM15.2 11.1176C15.642 11.1176 16 11.473 16 11.9118C16 12.3505 15.642 12.7059 15.2 12.7059C14.758 12.7059 14.4 12.3505 14.4 11.9118C14.4 11.473 14.758 11.1176 15.2 11.1176ZM40.8 9.52941C41.242 9.52941 41.6 9.88478 41.6 10.3235C41.6 10.7623 41.242 11.1176 40.8 11.1176H39.2C38.758 11.1176 38.4 10.7623 38.4 10.3235C38.4 9.88478 38.758 9.52941 39.2 9.52941H40.8ZM32.8 9.52941C33.242 9.52941 33.6 9.88478 33.6 10.3235C33.6 10.7623 33.242 11.1176 32.8 11.1176H31.2C30.758 11.1176 30.4 10.7623 30.4 10.3235C30.4 9.88478 30.758 9.52941 31.2 9.52941H32.8ZM18.4 4.76471H6.4V8.73529C6.40267 9.7425 7.04333 10.6392 8 10.9747V7.14706C8.004 6.85059 8.17333 6.58125 8.44 6.44824C8.69467 6.31853 9 6.33375 9.24 6.48794C10.6747 7.4389 12.3627 7.94515 14.088 7.94118H18.4C18.842 7.94118 19.2 8.29654 19.2 8.73529V10.9747C20.1567 10.6392 20.7973 9.7425 20.8 8.73529V7.14706C20.8 5.83147 19.7253 4.76471 18.4 4.76471ZM40.8 6.35294C41.242 6.35294 41.6 6.70831 41.6 7.14706C41.6 7.58581 41.242 7.94118 40.8 7.94118H39.2C38.758 7.94118 38.4 7.58581 38.4 7.14706C38.4 6.70831 38.758 6.35294 39.2 6.35294H40.8ZM32.8 6.35294C33.242 6.35294 33.6 6.70831 33.6 7.14706C33.6 7.58581 33.242 7.94118 32.8 7.94118H31.2C30.758 7.94118 30.4 7.58581 30.4 7.14706C30.4 6.70831 30.758 6.35294 31.2 6.35294H32.8Z" fill="#00AFA1"/>
</g>
</g>
</g>
</g>
</g>
</svg>
