<svg width="70" height="24" viewBox="0 0 70 24" fill="none" xmlns="http://www.w3.org/2000/svg">
<g id="icon_visa" clip-path="url(#clip0)">
<g id="g4158">
<path id="polygon9" d="M30.3333 23.6538H24.6628L28.2095 0.421143H33.8797L30.3333 23.6538Z" fill="#00579F"/>
<path id="path11" d="M50.8893 0.989106C49.7709 0.519026 47.9969 0 45.8033 0C40.2035 0 36.2602 3.16343 36.236 7.68618C36.1895 11.0231 39.0593 12.8764 41.2057 13.9891C43.3996 15.126 44.1453 15.8681 44.1453 16.8815C44.123 18.4379 42.3726 19.1553 40.74 19.1553C38.4761 19.1553 37.263 18.7854 35.4196 17.9195L34.6729 17.5483L33.8794 22.7635C35.2093 23.4054 37.6596 23.975 40.2035 24C46.1534 24 50.027 20.8855 50.0729 16.0658C50.0955 13.4211 48.5801 11.3946 45.3131 9.73863C43.3298 8.67561 42.1152 7.95883 42.1152 6.87118C42.1385 5.8824 43.1425 4.86964 45.3813 4.86964C47.2248 4.82004 48.5792 5.28946 49.6053 5.75921L50.1182 6.00592L50.8893 0.989106Z" fill="#00579F"/>
<path id="path13" d="M58.4258 15.4233C58.8928 14.0886 60.6898 8.92298 60.6898 8.92298C60.6662 8.97258 61.1558 7.56365 61.4358 6.69872L61.8321 8.70058C61.8321 8.70058 62.9059 14.2617 63.1391 15.4233C62.2529 15.4233 59.5459 15.4233 58.4258 15.4233ZM65.4253 0.421143H61.0392C59.6866 0.421143 58.659 0.840962 58.0755 2.34876L49.6527 23.6534H55.6025C55.6025 23.6534 56.5821 20.786 56.7926 20.1684C57.4454 20.1684 63.2334 20.1684 64.0731 20.1684C64.2359 20.9841 64.7497 23.6534 64.7497 23.6534H70L65.4253 0.421143Z" fill="#00579F"/>
<path id="path15" d="M19.9266 0.421143L14.3733 16.2636L13.7664 13.0505C12.7398 9.34313 9.51985 5.31509 5.92661 3.31225L11.0132 23.6291H17.0096L25.9226 0.421143H19.9266Z" fill="#00579F"/>
<path id="path17" d="M9.2166 0.421143H0.0933346L0 0.890565C7.11672 2.81852 11.83 7.46576 13.7664 13.0515L11.7832 2.37406C11.4566 0.890236 10.4532 0.470089 9.2166 0.421143Z" fill="#FAA61A"/>
</g>
</g>
<defs>
<clipPath id="clip0">
<rect width="70" height="24" fill="white"/>
</clipPath>
</defs>
</svg>
